<?xml version="1.0" encoding="utf-8"?>
<!-- Generator: Adobe Illustrator 26.0.1, SVG Export Plug-In . SVG Version: 6.00 Build 0)  -->
<svg version="1.1" id="map" xmlns="http://www.w3.org/2000/svg" xmlns:xlink="http://www.w3.org/1999/xlink" x="0px" y="0px"
	 viewBox="0 0 1920 1080" style="enable-background:new 0 0 1920 1080;" xml:space="preserve">
<style type="text/css">
	.st0{fill:none;stroke:#000000;stroke-miterlimit:10;}
	.st1{display:none;fill:none;stroke:#000000;stroke-miterlimit:10;}
	.st2{font-family:'ArialMT';}
	.st3{font-size:18.8753px;}
</style>
<g>
	<g>
		<path class="st0" d="M63.4,469.3c-32.1,0-58,25-58,55.8s26,55.8,58,55.8"/>
	</g>
	<g>
		<polyline class="st0" points="63.4,504.5 63.4,469.1 1895.1,469.1 1895.1,581.3 63.4,581.3 63.4,544.8 		"/>
	</g>
	<g>
		<polyline class="st0" points="325.8,581.3 441.9,581.3 441.9,776.8 145.4,776.8 145.4,581.3 266.8,581.3 		"/>
	</g>
	<g>
		<polyline class="st0" points="803.2,581.3 876.7,581.3 876.7,831.2 681.6,831.2 681.6,581.3 755.2,581.3 		"/>
	</g>
	<g>
		<polyline class="st0" points="1238.6,581.3 1312.8,581.3 1312.8,831.2 1117.8,831.2 1117.8,581.3 1196.9,581.3 		"/>
	</g>
	<g>
		<polyline class="st0" points="1646.9,581.3 1721.1,581.3 1721.1,831.2 1526.1,831.2 1526.1,581.3 1605.2,581.3 		"/>
	</g>
	<g>
		<polyline class="st0" points="352.6,469.1 400.3,469.1 400.3,95.4 253.2,95.4 253.2,469.1 302.1,469.1 		"/>
		<path class="st0" d="M400.3,96.8c0-40.6-32.9-73.6-73.6-73.6s-73.5,33-73.5,73.6"/>
	</g>
	<g>
		<polyline class="st0" points="882.3,469.1 934.9,469.1 934.9,95.4 787.8,95.4 787.8,469.1 841.1,469.1 		"/>
		<path class="st0" d="M934.9,96.8c0-40.6-32.9-73.6-73.6-73.6s-73.5,33-73.5,73.6"/>
	</g>
	<g>
		<polyline class="st0" points="1445.3,469.1 1497.7,469.1 1497.7,95.4 1350.6,95.4 1350.6,469.1 1403.9,469.1 		"/>
		<path class="st0" d="M1497.7,96.8c0-40.6-32.9-73.6-73.6-73.6c-40.6,0-73.6,32.9-73.6,73.6"/>
	</g>
	<g>
		<polyline class="st0" points="1842.8,469.3 1895.1,469.3 1895.1,95.6 1748.1,95.6 1748.1,469.3 1801.4,469.3 		"/>
		<path class="st0" d="M1895.1,97c0-40.6-32.9-73.6-73.6-73.6c-40.6,0-73.6,32.9-73.6,73.6"/>
	</g>
	<g>
		<polyline class="st0" points="163.6,494.8 163.6,527.2 322.5,526.9 1821.6,525.2 1821.6,284 		"/>
		<polyline class="st0" points="163.6,494.8 163.6,527.2 322.5,526.9 322.5,284 		"/>
		<polyline class="st0" points="163.6,494.8 163.6,527.8 858.4,527.8 1821.6,525.2 1821.6,284 		"/>
		<polyline class="st0" points="163.6,494.8 163.6,527.2 858.9,526.9 858.9,284 		"/>
		<polyline class="st0" points="163.6,494.8 163.6,527.8 1422,527.8 1422,287.1 		"/>
		<polyline class="st0" points="163.6,494.8 163.6,527.8 291,527.8 291,688.2 		"/>
		<polyline class="st0" points="163.6,494.8 163.6,527.8 776.1,527.8 776,708.2 		"/>
		<polyline class="st0" points="163.6,494.8 163.6,527.8 1211.5,527.8 1212.3,708.2 		"/>
		<polyline class="st1" points="163.6,494.8 163.6,526.2 1417.3,527.8 1821.6,525.2 1821.6,284 		"/>
		<text transform="matrix(1 0 0 1 1769.6963 266.6914)" class="st0 st2 st3">PEC &amp; GCCD</text>
		<text transform="matrix(1 0 0 1 302.0576 269.8374)" class="st0 st2 st3">SGM</text>
		<text transform="matrix(1 0 0 1 830.5674 269.8374)" class="st0 st2 st3">GACO</text>
		<text transform="matrix(1 0 0 1 1403.1191 269.8374)" class="st0 st2 st3">MMI</text>
		<text transform="matrix(1 0 0 1 739.3359 741.7207)" class="st0 st2 st3">AMPHI 110</text>
		<text transform="matrix(1 0 0 1 1176.6152 741.7207)" class="st0 st2 st3">AMPHI 140</text>
		<text transform="matrix(1 0 0 1 239.1396 725.9912)" class="st0 st2 st3">CAFETERIA</text>
		<circle class="st0" cx="1821.6" cy="280.8" r="7.9"/>
		<circle class="st0" cx="322.5" cy="285.6" r="7.9"/>
		<circle class="st0" cx="858.9" cy="290.3" r="7.9"/>
		<circle class="st0" cx="1422" cy="285.6" r="7.9"/>
		<circle cx="775.5" cy="702.4" r="7.9"/>
		<circle class="st0" cx="1212.8" cy="702.4" r="7.9"/>
		<circle class="st0" cx="291" cy="688.2" r="7.9"/>
		<text transform="matrix(1 0 0 1 1581.1191 741.9473)" class="st0 st2 st3">AMPHI 160</text>
		<polyline class="st0" points="163.6,494.8 163.6,527.2 1628.5,527.8 1628.5,706.3 		"/>
		<circle class="st0" cx="1628.5" cy="701.3" r="7.9"/>
	</g>
	<g id="position">
		<circle class="st0" cx="323.4" cy="212.5" r="15.7"/>
		<circle class="st0" cx="323.4" cy="212.5" r="20.4"/>
		<text transform="matrix(1 0 0 1 266.8257 188.9107)" class="st0 st2 st3">Vous êtes ici</text>
	</g>
</g>
</svg>
